<?xml version="1.0" encoding="UTF-8" standalone="no"?>
<!-- Created with Inkscape (http://www.inkscape.org/) -->

<svg
   xmlns:dc="http://purl.org/dc/elements/1.1/"
   xmlns:cc="http://creativecommons.org/ns#"
   xmlns:rdf="http://www.w3.org/1999/02/22-rdf-syntax-ns#"
   xmlns:svg="http://www.w3.org/2000/svg"
   xmlns="http://www.w3.org/2000/svg"
   xmlns:sodipodi="http://sodipodi.sourceforge.net/DTD/sodipodi-0.dtd"
   xmlns:inkscape="http://www.inkscape.org/namespaces/inkscape"
   width="628"
   height="628"
   viewBox="0 0 166.15833 166.15834"
   version="1.1"
   id="svg8"
   inkscape:version="0.92.3 (2405546, 2018-03-11)"
   sodipodi:docname="logo.svg">
  <defs
     id="defs2" />
  <sodipodi:namedview
     id="base"
     pagecolor="#ffffff"
     bordercolor="#666666"
     borderopacity="1.0"
     inkscape:pageopacity="0.0"
     inkscape:pageshadow="2"
     inkscape:zoom="0.775"
     inkscape:cx="-106.8583"
     inkscape:cy="92.346242"
     inkscape:document-units="px"
     inkscape:current-layer="layer1"
     showgrid="true"
     units="px"
     inkscape:window-width="2560"
     inkscape:window-height="1417"
     inkscape:window-x="-8"
     inkscape:window-y="-8"
     inkscape:window-maximized="1">
    <inkscape:grid
       type="xygrid"
       id="grid815" />
  </sodipodi:namedview>
  <metadata
     id="metadata5">
    <rdf:RDF>
      <cc:Work
         rdf:about="">
        <dc:format>image/svg+xml</dc:format>
        <dc:type
           rdf:resource="http://purl.org/dc/dcmitype/StillImage" />
        <dc:title />
      </cc:Work>
    </rdf:RDF>
  </metadata>
  <g
     inkscape:label="Layer 1"
     inkscape:groupmode="layer"
     id="layer1"
     transform="translate(0,-130.84165)">
    <g
       aria-label="S
"
       transform="matrix(1.031145,0,0,1.0494513,-41.61083,75.235416)"
       style="font-style:normal;font-variant:normal;font-weight:normal;font-stretch:normal;font-size:200px;line-height:1.25;font-family:'DejaVu Sans';-inkscape-font-specification:'DejaVu Sans';letter-spacing:0px;word-spacing:0px;fill:#a75be5;fill-opacity:1;stroke:#d271ff;stroke-opacity:1;stroke-width:2.54343986;stroke-miterlimit:4;stroke-dasharray:none"
       id="flowRoot816">
      <path
         d="m 147.03125,63.9375 v 19.238281 q -11.23047,-5.371094 -21.19141,-8.007812 -9.96093,-2.636719 -19.23828,-2.636719 -16.113279,0 -24.902341,6.25 -8.691407,6.25 -8.691407,17.773437 0,9.667973 5.761719,14.648443 5.859375,4.88281 22.070309,7.91015 l 11.91407,2.44141 q 22.07031,4.19922 32.51953,14.84375 10.54687,10.54687 10.54687,28.32031 0,21.19141 -14.25781,32.12891 -14.16016,10.9375 -41.601563,10.9375 -10.351562,0 -22.070312,-2.34375 -11.621094,-2.34375 -24.121094,-6.9336 v -20.3125 q 12.011719,6.73828 23.535156,10.15625 11.523438,3.41797 22.65625,3.41797 16.894533,0 26.074223,-6.64062 9.17968,-6.64063 9.17968,-18.94532 0,-10.74218 -6.64062,-16.79687 -6.54297,-6.05469 -21.58203,-9.08203 l -12.011721,-2.34375 q -22.070313,-4.39453 -31.933594,-13.76953 -9.863281,-9.375 -9.863281,-26.074223 0,-19.335937 13.574218,-30.46875 13.671875,-11.132812 37.597658,-11.132812 10.25391,0 20.89844,1.855469 10.64453,1.855468 21.77734,5.566406 z"
         style="stroke-width:2.54343986;stroke-miterlimit:4;stroke-dasharray:none"
         id="path818" />
    </g>
  </g>
</svg>
