<?xml version="1.0" encoding="UTF-8" standalone="no"?>
<svg
   xmlns:dc="http://purl.org/dc/elements/1.1/"
   xmlns:cc="http://creativecommons.org/ns#"
   xmlns:rdf="http://www.w3.org/1999/02/22-rdf-syntax-ns#"
   xmlns:svg="http://www.w3.org/2000/svg"
   xmlns="http://www.w3.org/2000/svg"
   xmlns:sodipodi="http://sodipodi.sourceforge.net/DTD/sodipodi-0.dtd"
   xmlns:inkscape="http://www.inkscape.org/namespaces/inkscape"
   width="8.72113in"
   height="8.72113in"
   viewBox="0 0 628 628"
   version="1.1"
   id="svg3768"
   sodipodi:docname="read.svg"
   inkscape:version="0.92.3 (2405546, 2018-03-11)">
  <metadata
     id="metadata3774">
    <rdf:RDF>
      <cc:Work
         rdf:about="">
        <dc:format>image/svg+xml</dc:format>
        <dc:type
           rdf:resource="http://purl.org/dc/dcmitype/StillImage" />
      </cc:Work>
    </rdf:RDF>
  </metadata>
  <defs
     id="defs3772" />
  <sodipodi:namedview
     pagecolor="#ffffff"
     bordercolor="#666666"
     borderopacity="1"
     objecttolerance="10"
     gridtolerance="10"
     guidetolerance="10"
     inkscape:pageopacity="0"
     inkscape:pageshadow="2"
     inkscape:window-width="2560"
     inkscape:window-height="1417"
     id="namedview3770"
     showgrid="true"
     inkscape:zoom="0.56376484"
     inkscape:cx="286.39083"
     inkscape:cy="427.38545"
     inkscape:window-x="-8"
     inkscape:window-y="-8"
     inkscape:window-maximized="1"
     inkscape:current-layer="svg3768" />
  <path
     id="Selection"
     d="m 148,4 c 11.52814,-0.1829303 34,1.83 34,1.83 41.51,4.15 94.43,16.82 121.48,51.17 4.81,6.1 7.27,11.12 10.52,18 3.25,-6.88 5.71,-11.9 10.52,-18 C 351.57,22.65 404.49,9.98 446,5.83 c 0,0 22.65169,-2.0100767 34,-1.83 11.70797,0.1857839 35,3 35,3 v 55 c 25.47,1.17 56.59,6.62 80,16.72 5.06,2.18 19.33,9.2 21.98,13.6 1.24,2.07 1.02,5.31 1.02,7.68 v 372 120 25 c -0.04,2.92 -0.13,8.07 -2.7,10.01 -1.65,1.25 -5.27,0.99 -7.3,0.99 h -19 c -6.54,-0.08 -19.06,-3.81 -26,-5.53 l -34,-7.05 c -27.23,-4.91 -54.42,-8.61 -82,-10.51 L 435,604 h -31 c -9.28,0.11 -26.26,2.78 -35,5.86 -4.69,1.66 -10.14,4.17 -13.12,8.31 -2.16,2.99 -2.58,6.28 -2.88,9.83 h -78 c -0.34,-4.03 -0.83,-7.49 -3.57,-10.7 -3.83,-4.5 -10.84,-7.14 -16.43,-8.66 -9.54,-2.59 -23.14,-4.62 -33,-4.64 h -29 l -12,0.91 c -38.08,2.62 -75.72,8.58 -113,16.88 -7.78,1.73 -21.91,6.12 -29,6.21 H 19 c -9.66,-0.06 -8.99,-4.51 -9,-13 V 100 C 10,97.63 9.78,94.39 11.02,92.32 13.67,87.92 27.94,80.9 33,78.72 56.41,68.62 87.53,63.17 113,62 V 7 c 0,0 23.47186,-2.8170697 35,-3 z m 312,30 c -23.21,0.04 -56.69,7.53 -78,16.72 -14.88,6.42 -31.39,16.4 -39.02,31.28 -4.61,8.99 -7.96,27.82 -7.98,38 v 381 c -0.02,11.18 -5.27,13.3 -13,21 -1.77,1.76 -5.4,5.96 -8,5.96 -2.6,0 -6.23,-4.2 -8,-5.96 -7.73,-7.7 -12.98,-9.82 -13,-21 V 120 C 292.98,109.82 289.63,90.99 285.02,82 277.39,67.12 260.88,57.14 246,50.72 224.69,41.53 191.21,34.04 168,34 h -25 v 471 l 17,-1 h 28 c 24.25,0.04 56.75,7.59 79,17.15 17.13,7.36 37.31,20.97 46,37.85 h 2 c 8.69,-16.88 28.87,-30.49 46,-37.85 22.25,-9.56 54.75,-17.11 79,-17.15 h 27 l 18,1 V 34 Z M 57,101.33 c -3.62,1.21 -13.97,4.24 -15.98,7.16 C 39.77,110.32 40,113.82 40,116 v 482 l 35,-8 c 31.97,-6.61 64.45,-11.81 97,-14.09 l 10,-0.91 20,-1 c 20.45,-0.03 42.23,0.78 62,6.43 18.65,5.32 20.72,10.74 29,14.57 0,-6.36 0.25,-10.87 -2.12,-17 C 284.62,561.8 265.34,551.28 250,545.2 232.83,538.4 203.48,533.03 185,533 h -23 l -49,6 V 92 c -15.15,0.01 -41.57,4.54 -56,9.33 z M 588,116 c 0,-2.18 0.23,-5.68 -1.02,-7.51 -2.01,-2.92 -12.36,-5.95 -15.98,-7.16 C 556.57,96.54 530.15,92.01 515,92 v 447 l -49,-6 h -23 c -18.48,0.03 -47.83,5.4 -65,12.2 -15.34,6.08 -34.62,16.6 -40.88,32.8 -2.37,6.13 -2.12,10.64 -2.12,17 8.28,-3.83 10.35,-9.25 29,-14.57 19.77,-5.65 41.55,-6.46 62,-6.43 l 20,1 21,1.83 c 28.89,2.89 57.55,7.29 86,13.17 l 35,8 z"
     inkscape:connector-curvature="0"
     style="fill:#000000;stroke:#000000;stroke-width:1;fill-opacity:1"
     sodipodi:nodetypes="scccccsccccsccccscccccccccccccccccccsccccsccccccscccccccccccccccccccccsccccccccccccccscccccccccccccccs" />
</svg>
